<svg width="668" height="720" viewBox="0 0 668 720" fill="none" xmlns="http://www.w3.org/2000/svg">
<g clip-path="url(#clip0_79631_12)">
<mask id="mask0_79631_12" style="mask-type:luminance" maskUnits="userSpaceOnUse" x="0" y="0" width="668" height="720">
<path d="M668 0H0V720H668V0Z" fill="white"/>
</mask>
<g mask="url(#mask0_79631_12)">
<path fill-rule="evenodd" clip-rule="evenodd" d="M334.682 641.695C243.991 642.844 142.904 623.492 93.968 547.199C46.554 473.279 87.2757 381.299 114.021 297.677C139.304 218.626 163.935 133.327 238.219 96.1803C317.884 56.343 414.542 64.6213 491.953 108.687C568.144 152.057 617.055 231.267 628.178 318.159C638.751 400.763 603.322 479.751 547.348 541.454C491.971 602.499 417.145 640.65 334.682 641.695Z" fill="#9BDBFF"/>
<mask id="mask1_79631_12" style="mask-type:luminance" maskUnits="userSpaceOnUse" x="60" y="17" width="609" height="703">
<path d="M669 17H60V720H669V17Z" fill="white"/>
</mask>
<g mask="url(#mask1_79631_12)">
<path d="M432.677 469.008C475.944 464.061 546.917 477.541 486.162 562.921C425.855 647.673 414.179 700.963 446.557 690.478C446.79 690.391 447.033 690.31 447.284 690.234C447.039 690.319 446.797 690.4 446.557 690.478C437.557 693.841 441.673 705.978 437.023 710.9C400.984 716.63 400.313 668.192 480.806 561.929C500.178 533.677 513.117 478.665 436.742 481.628L432.677 469.008Z" fill="#FFD500"/>
<path d="M427.839 452.945C476.727 441.778 530.059 437.389 475.722 538.571C421.942 638.716 478.99 631.224 515.256 614.581C515.599 614.403 515.972 614.23 516.376 614.061C516.005 614.235 515.631 614.409 515.256 614.581C506.326 619.194 517.142 626.522 512.744 632.437C472.315 643.493 407.042 640.124 469.377 538.205C486.516 504.821 519.059 451.05 431.707 464.474L427.839 452.945Z" fill="#005BBB"/>
<path d="M185.47 198.55C192.656 197.842 197.578 188.114 196.465 176.822C195.351 165.53 188.624 156.951 181.438 157.66C174.252 158.368 169.33 168.096 170.443 179.388C171.557 190.68 178.284 199.259 185.47 198.55Z" fill="#0D070C"/>
<path d="M324.678 157.549C318.1 160.528 308.973 154.564 304.292 144.229C299.61 133.893 301.147 123.1 307.724 120.12C314.301 117.141 323.428 123.105 328.11 133.44C332.791 143.776 331.255 154.57 324.678 157.549Z" fill="#0D070C"/>
<path fill-rule="evenodd" clip-rule="evenodd" d="M231.969 88.3394C207.094 95.327 161.951 119.282 180.382 159.202C192.737 185.963 186.278 198.024 179.296 211.061C173.258 222.333 166.83 234.336 171.837 257.204C176.384 277.974 185.842 290.826 195.282 303.653C208.253 321.28 221.191 338.861 221.306 376.881C221.466 429.431 260.094 568.545 279.389 631.534L370.944 607.001L231.969 88.3394ZM232.211 89.2415C257.247 82.8552 308.32 81.0296 312.319 124.817C314.986 154.024 330.398 162.473 346.52 171.311C360.609 179.034 375.241 187.055 382.379 209.49C389.058 230.479 384.324 245.967 379.579 261.493C373.449 281.551 367.299 301.671 385.716 333.794C411.853 379.384 447.957 519.175 462.741 583.371L371.186 607.903L232.211 89.2415Z" fill="white"/>
<path d="M234.06 305.943C220.768 317.248 197.083 311.235 181.158 292.511C165.234 273.788 163.101 249.444 176.394 238.139C189.686 226.834 213.371 232.847 229.295 251.571C245.22 270.294 247.353 294.638 234.06 305.943Z" fill="url(#paint0_radial_79631_12)"/>
<path d="M339.442 277.18C322.823 271.86 315.425 248.57 322.918 225.161C330.411 201.751 349.959 187.087 366.578 192.407C383.197 197.726 390.595 221.016 383.102 244.425C375.609 267.835 356.062 282.499 339.442 277.18Z" fill="url(#paint1_radial_79631_12)"/>
<path d="M435.705 476.832C377.172 523.231 287.572 536.157 250.692 530.628L256.95 552.252C341.794 570.362 414.963 523.429 441.884 498.278L435.705 476.832Z" fill="#005BBB"/>
<path d="M441.884 497.551C372.714 556.319 293.684 557.043 256.697 551.943L261.96 568.794C347.154 585.914 421.646 547.002 448.063 521.541L441.884 497.551Z" fill="#FFD500"/>
<path opacity="0.5" d="M312.23 141.548C315.427 142.057 318.667 138.398 319.467 133.375C320.267 128.352 318.324 123.867 315.128 123.358C311.931 122.849 308.691 126.508 307.891 131.531C307.091 136.554 309.034 141.039 312.23 141.548Z" fill="white"/>
<path opacity="0.5" d="M179.194 179.35C182.391 179.859 185.631 176.2 186.431 171.177C187.231 166.154 185.288 161.669 182.092 161.16C178.895 160.651 175.655 164.31 174.855 169.333C174.055 174.356 175.998 178.841 179.194 179.35Z" fill="white"/>
<path d="M354.873 567.081C194.646 598.273 229 815.428 266.205 920.107C453.599 981.407 803.303 1043.82 702.971 803.076C602.64 562.331 470.765 534.272 417.369 550.335L354.873 567.081Z" fill="white"/>
<path d="M208.679 205.277C188.97 143.269 246.386 116.651 246.339 117.495C311.241 117.495 320.296 173.069 320.296 181.653C320.296 205.277 362.24 214.921 357.422 240.83C352.604 266.739 365.571 314.539 365.493 350.331C365.446 372.265 359.096 381.97 353.703 385.453C355.285 385.044 354.647 385.302 353.089 385.825C351.67 386.631 350.34 387.009 349.236 387.074C350.67 386.619 352.075 386.166 353.089 385.825C353.292 385.71 353.497 385.586 353.703 385.453C351.623 385.99 345.707 387.677 332.999 391.425C297.16 401.995 282.216 355.243 236.594 309.46C190.973 263.677 233.314 282.786 208.679 205.277Z" fill="#FF6B0A"/>
<path d="M326.836 368.423C297.295 373.632 270.805 312.056 261.253 280.617C277.946 271.955 314.936 256.178 329.356 262.369C347.381 270.107 363.763 361.913 326.836 368.423Z" fill="#1F0C02"/>
<path d="M330.524 358.734C350.053 350.795 331.827 308.273 320.273 288.005L281.035 298.519C289.395 321.899 310.995 366.674 330.524 358.734Z" fill="#724B3B"/>
<path d="M324.046 343.505C327.418 339.405 309.597 297.271 300.265 276.717L291.891 279.948C301.205 302.842 320.674 347.604 324.046 343.505Z" fill="#6B3B28"/>
<path d="M243.001 259.404C251.367 212.691 233.838 192.735 224.028 188.596C243.605 140.425 284.803 154.426 302.955 167.447C290.83 214.201 299.267 177.136 330.949 235.839C356.294 282.801 327.757 308.719 310.321 315.808C284.396 316.471 234.636 306.118 243.001 259.404Z" fill="#ED5E00"/>
<path d="M339.021 256.111C276.016 205.705 254.23 260.784 251.212 294.624C258.806 306.124 281.49 326.439 311.482 315.696C341.474 304.953 342.338 271.496 339.021 256.111Z" fill="#FF8E3D"/>
<path d="M285.359 262.014C283.421 256.804 278.962 247.402 276.636 251.473C274.309 255.544 281.482 260.196 285.359 262.014Z" fill="#FD7411"/>
<path d="M295.531 259.307C293.757 254.039 291.301 243.927 295.672 245.625C300.042 247.323 297.399 255.454 295.531 259.307Z" fill="#FD7411"/>
<path d="M255.918 41.0159L272.275 85.7244C253.664 116.548 204.909 120.134 182.858 118.074L166.865 72.2755L255.918 41.0159Z" fill="#373500"/>
<path d="M272.275 85.7241C273.123 112.016 255.264 153.187 182.858 117.711L272.275 85.7241Z" fill="#373500"/>
<path d="M214.157 64.3276C238.836 55.8148 257.653 45.4652 256.186 41.2111C254.718 36.957 233.522 40.4094 208.843 48.9222C184.164 57.435 165.347 67.7846 166.814 72.0387C168.282 76.2928 189.478 72.8404 214.157 64.3276Z" fill="#373500"/>
<path d="M255.918 41.0159L272.275 85.7244C253.664 116.548 204.909 120.134 182.858 118.074L166.865 72.2755C166.865 72.2755 174.556 71.3111 179.223 69.7311C184.815 67.8379 192.672 62.8249 192.672 62.8249L231.201 94.0845V47.5586C231.201 47.5586 239.584 48.9458 244.65 47.5586C249.558 46.2146 255.918 41.0159 255.918 41.0159Z" fill="#4B4800"/>
<path d="M211.575 63.3971C211.854 63.4485 212.084 63.4771 212.3 63.5434C214.098 64.0396 215.42 64.9838 216.425 66.7334C216.85 67.4746 217.204 68.2814 217.583 69.0451C217.916 69.7222 218.245 70.3861 218.59 71.0577C218.681 71.2307 218.687 71.3209 218.512 71.437C218.132 71.6673 217.874 72.0406 217.872 72.5535C217.863 73.0082 218.058 73.3487 218.384 73.5636C218.715 73.7916 219.077 73.7718 219.43 73.6166C219.604 73.5325 219.69 73.3974 219.715 73.1682C219.928 71.4195 219.8 69.7113 219.378 68.0213C219.024 66.6245 218.438 65.34 217.904 64.0462C217.602 63.3071 217.319 62.5437 216.994 61.8158C216.795 61.3532 216.641 60.9001 216.574 60.3889C216.508 59.8777 216.537 59.3667 216.685 58.8447C217.119 59.0542 217.472 59.38 217.724 59.8015C217.955 60.2022 218.149 60.6516 218.322 61.0804C218.509 61.5486 218.639 62.045 218.798 62.5113C219.217 63.7522 219.625 64.9988 220.079 66.2229C220.848 68.2575 222.008 69.9473 223.574 71.2547C223.778 71.4355 223.965 71.4228 224.175 71.2898C224.712 70.9679 224.949 70.2789 224.73 69.6865C224.524 69.1337 223.91 68.8411 223.355 69.0785C223.153 69.1607 223.112 69.0874 223.067 68.8919C222.815 67.8805 222.546 66.8616 222.282 65.8558C221.993 64.7072 221.646 63.5866 221.659 62.3692C221.678 60.7609 222.107 59.4824 222.911 58.1464C222.972 58.0545 223.034 57.9626 223.121 57.8275C223.165 57.9459 223.194 58.0249 223.223 58.1039C225.113 63.1979 226.925 68.0812 228.815 73.1752C228.922 73.4648 228.922 73.4648 228.678 73.5826C227.762 74.0259 226.834 74.4747 225.918 74.918C225.756 74.9965 225.706 75.0829 225.739 75.284C225.99 76.8083 225.793 78.2696 225.107 79.6265C224.966 79.9117 224.869 80.2384 224.749 80.5444C223.974 80.1125 223.067 79.9921 222.328 79.4024C221.725 78.9182 221.176 78.3608 220.765 77.6591C220.667 77.5048 220.578 77.4858 220.439 77.5532C219.499 78.0076 218.571 78.4565 217.632 78.911C217.469 78.9895 217.385 78.9837 217.307 78.7731C215.407 73.6528 213.581 68.7299 211.681 63.6097C211.649 63.5945 211.629 63.5419 211.575 63.3971ZM213.465 65.2463C213.447 65.2707 213.412 65.2875 213.394 65.3119C213.428 65.4041 213.462 65.4962 213.496 65.5883C214.409 68.0498 215.249 70.3137 216.163 72.7752C216.314 73.1832 216.314 73.1832 216.685 73.0037C216.824 72.9363 216.879 72.8632 216.855 72.6884C216.814 72.1341 216.956 71.6308 217.25 71.2088C217.374 71.0249 217.353 70.8952 217.261 70.7222C216.82 69.8644 216.362 68.9991 215.956 68.1246C215.523 67.2161 215.074 66.5951 214.348 65.9679C214.059 65.7042 213.761 65.4912 213.465 65.2463ZM223.037 60.6625C223.014 60.6737 222.997 60.6661 222.974 60.6774C222.944 60.8163 222.913 60.9553 222.894 61.0886C222.735 62.0972 222.593 62.8954 222.824 63.8861C223.124 65.1381 223.448 66.3788 223.76 67.6252C223.795 67.7944 223.869 67.8828 224.042 67.9076C224.518 67.9726 224.928 68.1933 225.259 68.6074C225.412 68.7975 225.559 68.7884 225.836 68.5767C226.007 68.4475 225.879 68.3232 225.835 68.2047C224.907 65.7038 224.053 63.4003 223.12 60.8862C223.102 60.8016 223.073 60.7227 223.037 60.6625ZM219.668 74.7745C219.605 74.7894 219.53 74.8099 219.439 74.8229C218.64 74.9921 217.921 74.859 217.371 74.1156C217.292 74.014 217.227 73.9838 217.127 74.0474C217.046 74.0867 216.965 74.126 216.883 74.1652C216.767 74.2213 216.741 74.2964 216.789 74.4281C217.156 75.4153 217.527 76.4156 217.905 77.3972C217.924 77.4499 218.061 77.5235 218.107 77.501C218.739 77.2112 219.376 76.9026 219.998 76.5864C220.044 76.564 220.103 76.427 220.095 76.3687C219.956 75.8461 219.817 75.3235 219.668 74.7745ZM224.632 72.3731C224.874 72.8771 225.117 73.3493 225.354 73.8402C225.419 73.9793 225.512 73.9345 225.605 73.8896C226.196 73.6034 226.771 73.3097 227.368 73.0367C227.553 72.947 227.582 72.8399 227.497 72.6481C227.158 71.7718 226.843 70.8843 226.511 69.9892C226.359 69.5812 226.359 69.5812 226 69.7551C225.896 69.8056 225.803 69.8505 225.822 70.0121C225.901 70.8897 225.559 71.5522 224.992 72.0902C224.867 72.197 224.733 72.2775 224.632 72.3731ZM220.796 69.8507C220.847 71.0213 220.889 72.1656 220.732 73.3283C221.194 73.4308 221.628 73.5313 222.069 73.6131C222.13 73.6301 222.236 73.5477 222.279 73.4801C222.503 73.1237 222.693 72.7521 222.916 72.3956C222.985 72.2849 222.984 72.2078 222.882 72.1174C222.155 71.5221 221.542 70.7936 220.955 70.022C220.896 69.973 220.843 69.9053 220.796 69.8507ZM221.678 76.9847C221.885 77.6916 223.031 78.752 223.477 78.7379C223.484 78.7191 223.491 78.7004 223.491 78.7004C223.237 78.0159 222.995 77.3258 222.734 76.6601C222.714 76.6075 222.604 76.5678 222.553 76.5771C222.253 76.691 221.968 76.8445 221.678 76.9847ZM224.461 78.2929C224.838 77.7226 224.895 76.0336 224.619 75.5464C224.364 75.6698 224.085 75.8045 223.83 75.9279C223.679 76.0009 223.657 76.0891 223.716 76.2471C223.921 76.7999 224.126 77.3528 224.331 77.9056C224.364 78.0297 224.408 78.1481 224.461 78.2929ZM221.698 75.7485C221.849 75.6756 222.016 75.6102 222.157 75.5109C222.203 75.4885 222.257 75.3383 222.231 75.3044C221.946 74.7589 221.436 74.4158 220.9 74.5198C220.786 74.544 220.738 74.5984 220.759 74.7281C220.844 75.1059 220.941 75.4781 221.031 75.8691C221.069 76.0064 221.158 76.0254 221.262 75.9749C221.396 75.8944 221.547 75.8214 221.698 75.7485ZM223.832 74.7161C223.971 74.6488 224.099 74.587 224.238 74.5197C224.382 74.4655 224.439 74.3605 224.352 74.2006C224.195 73.8883 224.038 73.5761 223.87 73.2695C223.788 73.1227 223.704 73.1169 223.584 73.2369C223.197 73.5949 223.003 74.3253 223.182 74.8443C223.202 74.8969 223.317 74.9498 223.368 74.9405C223.535 74.8751 223.681 74.789 223.832 74.7161Z" fill="#FFD500"/>
<path d="M434.5 471C477.766 466.053 546.917 477.541 486.162 562.921C425.854 647.673 414.179 700.963 446.556 690.478C446.79 690.391 447.032 690.31 447.284 690.234C447.039 690.319 446.796 690.4 446.556 690.478C437.556 693.841 441.672 705.978 437.023 710.9C400.984 716.63 400.312 668.192 480.806 561.929C500.178 533.677 513.875 478.537 437.5 481.5L434.5 471Z" fill="#FFD500"/>
<path d="M429.5 455C478.388 443.833 530.059 437.389 475.722 538.571C421.942 638.716 478.99 631.224 515.255 614.581C515.599 614.403 515.972 614.23 516.376 614.061C516.005 614.235 515.631 614.409 515.255 614.581C506.326 619.194 517.142 626.522 512.743 632.437C472.315 643.493 407.042 640.124 469.377 538.205C486.515 504.821 516 449.5 433 462.5L429.5 455Z" fill="#005BBB"/>
</g>
</g>
</g>
<defs>
<radialGradient id="paint0_radial_79631_12" cx="0" cy="0" r="1" gradientUnits="userSpaceOnUse" gradientTransform="translate(205.227 272.041) rotate(49.619) scale(44.505 31.5961)">
<stop stop-color="#FFBBBB"/>
<stop offset="1" stop-color="#FFBBBB" stop-opacity="0"/>
</radialGradient>
<radialGradient id="paint1_radial_79631_12" cx="0" cy="0" r="1" gradientUnits="userSpaceOnUse" gradientTransform="translate(353.01 234.793) rotate(107.75) scale(44.505 31.5961)">
<stop stop-color="#FFBBBB"/>
<stop offset="1" stop-color="#FFBBBB" stop-opacity="0"/>
</radialGradient>
<clipPath id="clip0_79631_12">
<rect width="668" height="720" fill="white"/>
</clipPath>
</defs>
</svg>
